<svg width="256" height="256" viewBox="0 0 256 256" fill="none" xmlns="http://www.w3.org/2000/svg">
<rect width="256" height="256" fill="#1A1A1A"/>
<path d="M128 256C198.692 256 256 198.692 256 128C256 57.3076 198.692 0 128 0C57.3076 0 0 57.3076 0 128C0 198.692 57.3076 256 128 256Z" fill="#1A1A1A"/>
<path d="M163.972 162.049C170.301 155.956 175.824 149.077 180.405 141.58C184.747 134.648 187.989 127.084 190.014 119.158C191.786 111.999 192.07 104.553 190.847 97.2801C189.524 89.9872 185.991 83.2775 180.725 78.0609C175.68 72.6467 169.094 68.9122 161.858 67.3622C154.683 65.8896 147.274 65.9879 140.141 67.6505C132.231 69.5214 124.665 72.6237 117.718 76.8437C102.581 85.8665 89.7768 98.32 80.3367 113.2C75.8243 120.179 72.4003 127.805 70.1826 135.815C68.1528 143.046 67.7373 150.635 68.9654 158.045C70.2694 165.337 73.7933 172.05 79.0555 177.264C84.1038 182.68 90.6867 186.424 97.9223 187.995C105.344 189.481 113.004 189.295 120.345 187.45C128.423 185.493 136.157 182.318 143.28 178.033C150.782 173.538 157.728 168.172 163.972 162.049Z" fill="#6360E1"/>
<path opacity="0.7" d="M178.228 127.292C178.258 118.501 177.181 109.741 175.024 101.218C173.08 93.2966 169.902 85.7301 165.607 78.7958C161.749 72.5276 156.62 67.1372 150.552 62.972C144.401 58.8511 137.134 56.7158 129.731 56.8538C122.328 56.7116 115.06 58.8473 108.91 62.972C102.862 67.0966 97.7797 72.4845 94.0153 78.7637C89.8586 85.7201 86.8212 93.2866 85.0143 101.186C80.9571 118.332 80.9571 136.188 85.0143 153.334C86.8894 161.424 89.9896 169.18 94.2075 176.333C97.9807 182.836 103.143 188.425 109.327 192.702C115.477 196.821 122.747 198.946 130.147 198.788C137.547 198.937 144.814 196.813 150.968 192.702C157.15 188.433 162.303 182.842 166.055 176.333C170.273 169.18 173.373 161.424 175.249 153.334C177.267 144.802 178.267 136.06 178.228 127.292Z" fill="white"/>
<path d="M163.717 93.4006C157.494 87.2162 150.521 81.8357 142.96 77.3846C136.008 73.1679 128.444 70.0558 120.538 68.1594C113.371 66.4733 105.931 66.2988 98.692 67.6469C91.4368 69.0964 84.7979 72.7288 79.665 78.0573C74.2905 83.2327 70.6533 89.9475 69.2546 97.2765C67.8851 104.476 68.1038 111.888 69.8952 118.994C71.9007 126.867 75.1443 134.37 79.5048 141.224C88.7111 156.102 101.272 168.619 116.182 177.773C123.232 182.177 130.911 185.482 138.956 187.575C146.21 189.511 153.804 189.807 161.187 188.44C168.408 186.883 175.028 183.279 180.254 178.059C185.481 172.838 189.092 166.222 190.656 159.002C191.997 151.616 191.691 144.026 189.759 136.772C187.669 128.731 184.376 121.053 179.989 113.997C175.395 106.515 169.933 99.6015 163.717 93.4006Z" fill="white"/>
</svg>
