<svg width="98" height="12" viewBox="0 0 98 12" fill="none" xmlns="http://www.w3.org/2000/svg">
<path d="M2.31571 5.14702V11.7717H0V0.236426H2.31571V1.84627C2.62287 1.27728 3.08267 0.805326 3.64338 0.4835C4.21947 0.1651 4.86872 0.00274671 5.52683 0.0125157C6.30315 -0.00533906 7.06904 0.193873 7.73833 0.587734C8.38532 0.986817 8.88826 1.58184 9.17407 2.28637C9.47015 1.58561 9.9757 0.993623 10.6214 0.591595C11.2903 0.196384 12.0562 -0.00417189 12.8329 0.0125157C13.3809 -0.00962975 13.9273 0.085309 14.4358 0.291005C14.9442 0.496701 15.403 0.808431 15.7816 1.20542C16.5277 2.00069 16.9008 3.15885 16.9008 4.67989V11.7717H14.5851V5.14702C14.5851 4.12784 14.369 3.35187 13.9367 2.8307C13.7137 2.5706 13.4336 2.36558 13.1182 2.23165C12.8029 2.09771 12.4609 2.03849 12.1189 2.0586C11.7716 2.03689 11.424 2.09522 11.1028 2.22908C10.7816 2.36294 10.4954 2.56877 10.2663 2.8307C9.82633 3.35573 9.60634 4.1317 9.60634 5.14702V11.7717H7.29063V5.14702C7.34753 4.32212 7.11555 3.50314 6.63451 2.8307C6.39766 2.58167 6.11267 2.3834 5.79686 2.24792C5.48105 2.11244 5.14101 2.04257 4.79738 2.04257C4.45375 2.04257 4.11371 2.11244 3.7979 2.24792C3.48209 2.3834 3.1971 2.58167 2.96025 2.8307C2.5357 3.35187 2.31571 4.12784 2.31571 5.14702Z" fill="white"/>
<path d="M28.2054 10.3122C27.0832 11.395 25.5848 12 24.0256 12C22.4664 12 20.968 11.395 19.8457 10.3122C19.2933 9.7431 18.8618 9.06795 18.5772 8.3275C18.2926 7.58705 18.1609 6.79663 18.19 6.00389C18.1637 5.2138 18.2967 4.42649 18.5812 3.68894C18.8657 2.95139 19.2957 2.2787 19.8457 1.71098C20.9693 0.630926 22.4672 0.02771 24.0256 0.02771C25.5839 0.02771 27.0818 0.630926 28.2054 1.71098C28.7573 2.28052 29.1885 2.95573 29.473 3.69609C29.7575 4.43644 29.8896 5.22667 29.8612 6.01934C29.8881 6.80951 29.7554 7.597 29.4709 8.33465C29.1864 9.0723 28.756 9.74492 28.2054 10.3122V10.3122ZM24.3845 9.60577C24.8203 9.6462 25.2597 9.59009 25.6714 9.44142C26.0831 9.29275 26.457 9.05517 26.7665 8.74559C27.0761 8.436 27.3136 8.062 27.4622 7.65019C27.6108 7.23838 27.6669 6.79888 27.6265 6.36292C27.5131 5.35522 27.0387 4.42268 26.2911 3.73776C25.6062 2.99081 24.6737 2.51761 23.6666 2.40588C23.231 2.36483 22.7917 2.42038 22.38 2.56859C21.9682 2.71679 21.5943 2.95399 21.2847 3.26329C20.9751 3.5726 20.7375 3.94639 20.5888 4.35804C20.4402 4.76969 20.3841 5.20906 20.4246 5.64486C20.5387 6.65236 21.013 7.58468 21.76 8.27002C22.4437 9.01926 23.3766 9.49404 24.3845 9.60577V9.60577Z" fill="white"/>
<path d="M33.5623 5.14714V11.7718H31.2466V0.236548H33.5623V1.84639C33.8694 1.2774 34.3293 0.805448 34.89 0.483622C35.4661 0.165223 36.1153 0.00286878 36.7734 0.0126378C37.5497 -0.00521699 38.3156 0.193995 38.9849 0.587856C39.6319 0.986939 40.1348 1.58196 40.4207 2.28649C40.7167 1.58573 41.2223 0.993745 41.868 0.591717C42.5369 0.196506 43.3028 -0.00404982 44.0795 0.0126378C44.6275 -0.00950768 45.1739 0.085431 45.6824 0.291127C46.1908 0.496823 46.6496 0.808553 47.0281 1.20554C47.7743 2.00081 48.1474 3.15897 48.1474 4.68002V11.7718H45.8317V5.14714C45.8317 4.12796 45.6156 3.35199 45.1833 2.83082C44.9603 2.57072 44.6801 2.3657 44.3648 2.23177C44.0495 2.09784 43.7075 2.03861 43.3655 2.05872C43.0182 2.03702 42.6706 2.09534 42.3494 2.2292C42.0282 2.36307 41.742 2.56889 41.5129 2.83082C41.0729 3.35585 40.8529 4.13182 40.8529 5.14714V11.7718H38.5372V5.14714C38.5941 4.32224 38.3621 3.50326 37.8811 2.83082C37.6551 2.57019 37.3723 2.36501 37.0544 2.23113C36.7365 2.09726 36.3921 2.03826 36.0478 2.05872C35.7018 2.03822 35.3557 2.09713 35.036 2.23095C34.7162 2.36477 34.4313 2.56996 34.203 2.83082C33.7274 3.50528 33.5009 4.32409 33.5623 5.14714V5.14714Z" fill="white"/>
<path d="M60.7798 6.00395C60.7798 6.18668 60.7643 6.44405 60.7334 6.77606H51.6906C51.7802 7.67161 52.1916 8.50423 52.8484 9.1194C53.5045 9.6923 54.3558 9.99087 55.2259 9.95327C56.5922 9.95327 57.5223 9.40122 58.0163 8.2971H60.4903C60.1905 9.40681 59.5067 10.374 58.5605 11.0265C57.5405 11.6865 56.3438 12.0204 55.1294 11.9839C54.3709 12.0057 53.6163 11.8674 52.9147 11.5781C52.2131 11.2887 51.5804 10.8548 51.0576 10.3046C50.5188 9.72652 50.0996 9.04761 49.824 8.30689C49.5485 7.56617 49.4221 6.77827 49.4521 5.98851C49.4221 5.19875 49.5485 4.41085 49.824 3.67013C50.0996 2.92941 50.5188 2.2505 51.0576 1.67244C52.1413 0.600929 53.6037 0 55.1275 0C56.6513 0 58.1136 0.600929 59.1973 1.67244C59.7334 2.25457 60.1491 2.93691 60.4207 3.68025C60.6922 4.42359 60.8143 5.21329 60.7798 6.00395V6.00395ZM55.114 2.03919C54.2733 2.00734 53.4535 2.30517 52.8291 2.8692C52.2059 3.47257 51.8151 4.27628 51.7253 5.13919H58.5065C58.418 4.27591 58.027 3.47178 57.4027 2.8692C56.7768 2.30529 55.9558 2.00755 55.114 2.03919V2.03919Z" fill="white"/>
<path d="M64.4927 5.47536V11.7719H62.1963V0.23662H64.4927V2.06265C64.821 1.43145 65.3232 0.907607 65.94 0.553183C66.5684 0.194865 67.2816 0.0121876 68.0049 0.0242907C68.594 -0.000290852 69.1816 0.100181 69.729 0.319095C70.2765 0.538009 70.7714 0.870403 71.1813 1.2944C71.9892 2.14372 72.3918 3.38681 72.3893 5.02368V11.7719H70.0736V5.47536C70.0736 4.34808 69.8304 3.49362 69.3441 2.91197C69.0764 2.63598 68.7561 2.41657 68.4021 2.26674C68.0481 2.1169 67.6676 2.0397 67.2831 2.0397C66.8987 2.0397 66.5182 2.1169 66.1642 2.26674C65.8102 2.41657 65.4898 2.63598 65.2222 2.91197C64.7359 3.49619 64.4927 4.35066 64.4927 5.47536Z" fill="white"/>
<path d="M82.7251 4.83445C82.686 4.44703 82.5696 4.07141 82.3826 3.72988C82.1956 3.38835 81.942 3.08787 81.6367 2.84627C81.0028 2.35907 80.2204 2.10546 79.4213 2.12822C78.9577 2.11711 78.4973 2.2078 78.0726 2.39389C77.6478 2.57998 77.269 2.85696 76.9628 3.2053C76.2926 3.97971 75.9434 4.98085 75.9863 6.00419C75.9422 7.0277 76.2916 8.02926 76.9628 8.80307C77.269 9.15142 77.6478 9.42839 78.0726 9.61448C78.4973 9.80057 78.9577 9.89126 79.4213 9.88016C80.2398 9.90218 81.0388 9.62802 81.6714 9.10805C82.3077 8.55548 82.7014 7.77486 82.7675 6.93457H85.1681C85.1445 7.63199 84.9765 8.31692 84.675 8.94616C84.3734 9.5754 83.9447 10.1353 83.4159 10.5905C82.3057 11.54 80.8813 12.0411 79.4213 11.9957C78.6557 12.0179 77.894 11.8792 77.1853 11.5886C76.4766 11.2981 75.8368 10.862 75.3071 10.3087C74.7624 9.73526 74.3377 9.05877 74.058 8.31892C73.7783 7.57906 73.6492 6.79077 73.6783 6.00033C73.6525 5.21316 73.7831 4.4287 74.0627 3.69243C74.3423 2.95617 74.7653 2.28276 75.3071 1.71128C75.837 1.15845 76.4769 0.722992 77.1856 0.433057C77.8943 0.143121 78.656 0.00515934 79.4213 0.0280889C80.8374 -0.0118647 82.2204 0.461109 83.3156 1.35997C83.8341 1.78845 84.2612 2.31683 84.5715 2.91371C84.8818 3.51059 85.0689 4.16378 85.1218 4.83445H82.7251Z" fill="white"/>
<path d="M97.0554 6.00395C97.0554 6.1854 97.0554 6.44791 97.0129 6.77606H87.9662C88.0507 7.66898 88.4551 8.50124 89.1048 9.1194C89.7609 9.69231 90.6121 9.99087 91.4822 9.95327C92.8485 9.95327 93.7799 9.40122 94.2765 8.29711H96.7698C96.47 9.40681 95.7861 10.374 94.84 11.0265C93.8201 11.687 92.6233 12.0209 91.4089 11.9839C90.6504 12.0057 89.8958 11.8674 89.1942 11.5781C88.4926 11.2887 87.8599 10.8548 87.3371 10.3046C86.799 9.72621 86.3805 9.04716 86.1056 8.30646C85.8307 7.56575 85.7049 6.77801 85.7354 5.98851C85.7049 5.19901 85.8307 4.41127 86.1056 3.67057C86.3805 2.92986 86.799 2.25081 87.3371 1.67244C88.4208 0.600929 89.8832 0 91.407 0C92.9308 0 94.3931 0.600929 95.4768 1.67244C96.0122 2.25488 96.4272 2.93736 96.6981 3.68069C96.969 4.42402 97.0904 5.21355 97.0554 6.00395ZM91.3896 2.03919C90.5491 2.00816 89.7295 2.30588 89.1048 2.8692C88.4815 3.47257 88.0907 4.27628 88.001 5.1392H94.7821C94.6947 4.27642 94.3051 3.47236 93.6822 2.8692C93.0557 2.30363 92.2328 2.00571 91.3896 2.03919V2.03919Z" fill="white"/>
</svg>
